<svg xmlns="http://www.w3.org/2000/svg" xmlns:xlink="http://www.w3.org/1999/xlink" version="1.1" x="0px" y="0px" viewBox="0 0 100 125" enable-background="new 0 0 100 100" xml:space="preserve"><path d="M88.59,58.86c-0.63-0.761-1.25-1.521-1.89-2.28C77.26,45.24,67.82,33.9,58.38,22.56c-3-3.58-5.979-7.18-8.97-10.77  c-0.45-0.55-0.73-0.54-1.14,0.04c-0.08,0.11-0.16,0.22-0.23,0.34c-5.12,7.84-10.24,15.67-15.35,23.52  c-7.16,10.96-14.31,21.92-21.46,32.88c-0.42,0.64-0.35,0.88,0.38,1.109c2.13,0.7,4.26,1.4,6.39,2.101  c12.26,4,24.52,7.989,36.78,11.989c0.21,0.07,0.43,0.131,0.71,0.211c0.18-0.101,0.399-0.211,0.59-0.341  c5.08-3.67,10.15-7.35,15.229-11.02c2.78-2.021,5.561-4.03,8.351-6.04c2.91-2.1,5.82-4.21,8.729-6.311  C89.2,59.69,89.21,59.61,88.59,58.86z M12.19,68.86C24.3,50.3,36.32,31.89,48.34,13.48c0.07,0.02,0.15,0.03,0.22,0.05  c2.12,23.05,4.24,46.1,6.36,69.26C40.66,78.14,26.51,73.53,12.19,68.86z"/><text x="0" y="115" fill="#000000" font-size="5px" font-weight="bold" font-family="'Helvetica Neue', Helvetica, Arial-Unicode, Arial, Sans-serif">Created by Vijay Ragavan</text><text x="0" y="120" fill="#000000" font-size="5px" font-weight="bold" font-family="'Helvetica Neue', Helvetica, Arial-Unicode, Arial, Sans-serif">from the Noun Project</text></svg>